<?xml version="1.0" encoding="UTF-8" standalone="no"?>
<!-- Created with Inkscape (http://www.inkscape.org/) -->

<svg
   width="16"
   height="16"
   viewBox="0 0 16 16"
   version="1.1"
   id="svg1"
   inkscape:version="1.4.2 (ebf0e940, 2025-05-08)"
   sodipodi:docname="miner1.svg"
   xmlns:inkscape="http://www.inkscape.org/namespaces/inkscape"
   xmlns:sodipodi="http://sodipodi.sourceforge.net/DTD/sodipodi-0.dtd"
   xmlns="http://www.w3.org/2000/svg"
   xmlns:svg="http://www.w3.org/2000/svg">
  <sodipodi:namedview
     id="namedview1"
     pagecolor="#505050"
     bordercolor="#eeeeee"
     borderopacity="1"
     inkscape:showpageshadow="0"
     inkscape:pageopacity="0"
     inkscape:pagecheckerboard="true"
     inkscape:deskcolor="#505050"
     inkscape:document-units="px"
     inkscape:zoom="38.612221"
     inkscape:cx="7.3810827"
     inkscape:cy="7.7436622"
     inkscape:window-width="1440"
     inkscape:window-height="847"
     inkscape:window-x="0"
     inkscape:window-y="25"
     inkscape:window-maximized="0"
     inkscape:current-layer="layer1" />
  <defs
     id="defs1" />
  <g
     inkscape:label="Layer 1"
     inkscape:groupmode="layer"
     id="layer1">
    <path
       id="rect1"
       style="fill:#b3b3b3"
       d="M 2 0 C 0.892 0 0 0.892 0 2 L 0 14 C 0 15.108 0.892 16 2 16 L 14 16 C 15.108 16 16 15.108 16 14 L 16 2 C 16 0.892 15.108 0 14 0 L 2 0 z M 2.5 2 L 3.5 2 L 6.5 2 C 6.777 2 7 2.223 7 2.5 L 7 3.5 C 7 3.777 6.777 4 6.5 4 L 4.5 4 C 4.223 4 4 4.223 4 4.5 L 4 6.5 C 4 6.777 3.777 7 3.5 7 L 2.5 7 C 2.223 7 2 6.777 2 6.5 L 2 3.5 L 2 2.5 C 2 2.223 2.223 2 2.5 2 z M 9.5 2 L 13.5 2 C 13.777 2 14 2.223 14 2.5 L 14 3.5 L 14 6.5 C 14 6.777 13.777 7 13.5 7 L 12.5 7 C 12.223 7 12 6.777 12 6.5 L 12 4.5 C 12 4.223 11.777 4 11.5 4 L 9.5 4 C 9.223 4 9 3.777 9 3.5 L 9 2.5 C 9 2.223 9.223 2 9.5 2 z M 2.5 9 L 3.5 9 C 3.777 9 4 9.223 4 9.5 L 4 11.5 C 4 11.777 4.223 12 4.5 12 L 6.5 12 C 6.777 12 7 12.223 7 12.5 L 7 13.5 C 7 13.777 6.777 14 6.5 14 L 3.5 14 L 2.5 14 C 2.223 14 2 13.777 2 13.5 L 2 12.5 L 2 9.5 C 2 9.223 2.223 9 2.5 9 z M 12.5 9 L 13.5 9 C 13.777 9 14 9.223 14 9.5 L 14 12.5 L 14 13.5 C 14 13.777 13.777 14 13.5 14 L 9.5 14 C 9.223 14 9 13.777 9 13.5 L 9 12.5 C 9 12.223 9.223 12 9.5 12 L 11.5 12 C 11.777 12 12 11.777 12 11.5 L 12 9.5 C 12 9.223 12.223 9 12.5 9 z " />
    <g
       id="g16"
       transform="translate(-0.22490152,0.22681964)">
      <path
         id="rect11"
         style="fill:#ffff00"
         d="M 7.0697115 -3.1478422 L 7.3127795 -2.9047743 L 7.3127795 -3.3909102 L 7.0697115 -3.1478422 z M 6.0090513 -0.67296849 C 5.8131827 -0.47709991 5.8131827 -0.16173028 6.0090513 0.034138295 L 7.3127795 1.3378664 L 7.3127795 -1.9766966 L 6.0090513 -0.67296849 z M 7.0697115 2.509012 L 7.3127795 2.75208 L 7.3127795 2.2659441 L 7.0697115 2.509012 z "
         transform="rotate(45)" />
      <path
         id="rect12"
         style="fill:#000000"
         d="M 7.3127795 -3.3909102 L 7.3127795 -2.9047743 L 7.4232649 -2.7942888 C 7.6191335 -2.5984203 7.6191335 -2.2830506 7.4232649 -2.087182 L 7.3127795 -1.9766966 L 7.3127795 1.3378664 L 7.4232649 1.4483519 C 7.6191335 1.6442204 7.6191335 1.9595901 7.4232649 2.1554586 L 7.3127795 2.2659441 L 7.3127795 2.75208 L 8.4839251 3.9232256 L 8.8374784 3.5696722 C 8.9666476 3.440503 9.1480012 3.3958929 9.3125658 3.4370897 L 9.3125658 -4.0759199 C 9.1480012 -4.0347231 8.9666476 -4.0793332 8.8374784 -4.2085024 L 8.4839251 -4.5620558 L 7.3127795 -3.3909102 z "
         transform="rotate(45)" />
      <path
         id="rect13"
         style="fill:#ffff00"
         d="M 9.3125658 -4.0759199 L 9.3125658 3.4370897 C 9.3975425 3.4583626 9.4778858 3.5029728 9.5445852 3.5696722 L 10.958799 4.9838858 C 11.056733 5.0818201 11.184543 5.130279 11.312352 5.130279 L 11.312352 -5.7691092 C 11.184543 -5.7691092 11.056733 -5.7206502 10.958799 -5.622716 L 9.5445852 -4.2085024 C 9.4778858 -4.141803 9.3975425 -4.0971928 9.3125658 -4.0759199 z "
         transform="rotate(45)" />
      <path
         id="rect14"
         style="fill:#000000"
         d="M 11.312352 -5.7691092 L 11.312352 5.130279 C 11.440162 5.130279 11.567971 5.0818201 11.665906 4.9838858 L 13.080119 3.5696722 C 13.146819 3.5029728 13.227162 3.4583626 13.312139 3.4370897 L 13.312139 -4.0759199 C 13.227162 -4.0971928 13.146819 -4.141803 13.080119 -4.2085024 L 11.665906 -5.622716 C 11.567971 -5.7206502 11.440162 -5.7691092 11.312352 -5.7691092 z "
         transform="rotate(45)" />
      <path
         id="rect15"
         style="fill:#ffff00"
         d="M 13.312139 -4.0759199 L 13.312139 3.4370897 C 13.476703 3.3958929 13.658057 3.440503 13.787226 3.5696722 L 14.140779 3.9232256 L 15.311925 2.75208 L 15.311925 2.2659441 L 15.201439 2.1554586 C 15.005571 1.9595901 15.005571 1.6442204 15.201439 1.4483519 L 15.311925 1.3378664 L 15.311925 -1.9766966 L 15.201439 -2.087182 C 15.005571 -2.2830506 15.005571 -2.5984203 15.201439 -2.7942888 L 15.311925 -2.9047743 L 15.311925 -3.3909102 L 14.140779 -4.5620558 L 13.787226 -4.2085024 C 13.658057 -4.0793332 13.476703 -4.0347231 13.312139 -4.0759199 z "
         transform="rotate(45)" />
      <path
         id="rect16"
         style="fill:#000000"
         d="M 15.311925 -3.3909102 L 15.311925 -2.9047743 L 15.554993 -3.1478422 L 15.311925 -3.3909102 z M 15.311925 -1.9766966 L 15.311925 1.3378664 L 16.615653 0.034138295 C 16.811522 -0.16173028 16.811522 -0.47709991 16.615653 -0.67296849 L 15.311925 -1.9766966 z M 15.311925 2.2659441 L 15.311925 2.75208 L 15.554993 2.509012 L 15.311925 2.2659441 z "
         transform="rotate(45)" />
    </g>
  </g>
</svg>
